<?xml version="1.0" standalone="no"?>
<!DOCTYPE svg PUBLIC "-//W3C//DTD SVG 20010904//EN"
 "http://www.w3.org/TR/2001/REC-SVG-20010904/DTD/svg10.dtd">
<svg version="1.0" xmlns="http://www.w3.org/2000/svg"
 width="1600.000000pt" height="1600.000000pt" viewBox="0 0 1600.000000 1600.000000"
 preserveAspectRatio="xMidYMid meet">
<metadata>
Created by potrace 1.14, written by Peter Selinger 2001-2017
</metadata>
<g transform="translate(0.000000,1600.000000) scale(0.100000,-0.100000)"
fill="#000000" stroke="none">
<path d="M10038 15995 c-2 -2 -48 -6 -103 -10 -150 -9 -281 -23 -384 -40 -13
-2 -45 -7 -70 -11 -25 -3 -57 -8 -71 -10 -14 -3 -38 -7 -55 -10 -16 -3 -59
-12 -95 -20 -36 -8 -78 -16 -95 -19 -16 -2 -40 -6 -52 -9 -13 -3 -32 -8 -43
-11 -11 -3 -28 -7 -37 -9 -45 -10 -220 -57 -233 -63 -8 -3 -22 -7 -30 -8 -31
-6 -149 -44 -275 -90 -71 -26 -136 -47 -142 -48 -7 0 -13 -4 -13 -9 0 -4 -7
-8 -16 -8 -8 0 -25 -5 -37 -12 -12 -7 -28 -13 -36 -14 -7 -2 -18 -7 -23 -12
-6 -6 -23 -7 -41 -2 -18 5 -48 11 -67 14 -19 3 -59 10 -88 16 -29 5 -56 9 -60
9 -4 -1 -9 0 -12 1 -6 3 -44 7 -145 15 -142 12 -427 7 -510 -9 -11 -2 -47 -7
-80 -11 -33 -4 -69 -9 -80 -10 -39 -6 -221 -46 -275 -61 -30 -8 -62 -17 -71
-19 -53 -12 -232 -75 -349 -122 -183 -74 -454 -210 -472 -237 -5 -7 -8 -7 -8
-1 0 6 -3 6 -8 0 -4 -6 -43 -33 -86 -59 -69 -43 -232 -160 -296 -212 -116 -96
-293 -271 -363 -359 -26 -33 -51 -65 -56 -71 -63 -78 -104 -145 -176 -287
l-55 -108 48 2 c26 1 57 6 70 10 14 5 22 5 22 -2 0 -6 5 -7 11 -4 42 26 702
41 934 21 55 -4 120 -10 145 -13 25 -3 55 -5 67 -6 21 -1 21 -2 5 -23 -136
-178 -178 -236 -264 -367 -37 -56 -71 -107 -77 -114 -6 -7 -11 -15 -11 -17 0
-3 -19 -36 -42 -73 -22 -38 -54 -92 -71 -122 -82 -150 -123 -214 -137 -216 -8
-1 -46 -5 -85 -9 -69 -6 -97 -10 -185 -26 -24 -5 -48 -6 -52 -4 -5 3 -8 1 -8
-4 0 -5 -6 -9 -12 -9 -7 0 -40 -6 -73 -13 -33 -8 -65 -14 -71 -16 -6 -1 -38
-10 -70 -19 -33 -10 -63 -18 -69 -20 -5 -1 -17 -5 -25 -8 -8 -3 -33 -11 -55
-17 -22 -6 -49 -15 -60 -20 -11 -5 -65 -27 -120 -48 -97 -39 -194 -83 -245
-112 -14 -8 -28 -14 -31 -15 -17 -1 -231 -134 -237 -147 -2 -5 -8 -8 -14 -8
-8 0 -72 -43 -88 -60 -3 -3 -32 -25 -64 -50 -199 -151 -425 -428 -525 -644
l-22 -48 23 -27 c30 -34 57 -60 99 -96 59 -51 159 -118 159 -107 0 4 4 2 8 -5
10 -16 141 -75 234 -107 79 -26 176 -50 243 -60 23 -4 51 -8 63 -11 98 -18
413 -25 567 -12 142 12 190 18 203 22 11 4 13 -8 8 -57 -3 -35 -8 -74 -11 -88
-3 -14 -7 -45 -10 -70 -4 -44 -8 -72 -21 -175 -3 -27 -8 -66 -9 -85 -1 -19 -5
-60 -8 -90 -10 -92 -20 -252 -21 -312 -1 -32 -3 -58 -6 -58 -8 0 -13 -253 -13
-645 0 -408 6 -625 18 -645 6 -9 4 -11 -5 -5 -9 5 -11 4 -6 -3 4 -7 9 -42 11
-79 9 -133 15 -229 22 -308 3 -44 6 -92 6 -107 1 -16 3 -28 6 -28 3 0 6 -19 7
-43 1 -66 27 -314 38 -372 2 -11 7 -49 11 -85 12 -120 72 -512 100 -650 3 -14
12 -68 21 -120 9 -52 18 -104 21 -115 2 -11 6 -29 9 -40 2 -11 11 -51 19 -90
9 -38 18 -81 20 -95 1 -14 8 -43 13 -65 6 -22 13 -51 16 -65 6 -30 9 -45 31
-135 9 -38 18 -77 20 -85 8 -40 67 -269 76 -296 5 -17 11 -40 13 -50 6 -32 76
-273 114 -394 19 -63 37 -121 38 -127 3 -16 152 -458 166 -492 6 -14 12 -30
14 -36 1 -5 15 -41 29 -80 15 -38 30 -81 35 -95 4 -14 21 -57 38 -97 17 -39
28 -74 25 -77 -4 -3 -1 -6 5 -6 7 0 12 -5 12 -11 0 -6 12 -41 26 -77 28 -70
33 -83 83 -196 17 -38 31 -75 31 -82 0 -8 4 -14 9 -14 5 0 12 -11 15 -25 6
-25 23 -62 152 -334 35 -73 64 -136 64 -140 0 -4 5 -12 12 -19 6 -6 13 -18 14
-25 1 -8 13 -31 26 -53 24 -39 58 -116 58 -133 0 -5 -14 -12 -30 -16 -27 -6
-211 -74 -285 -106 -16 -7 -32 -13 -35 -14 -16 -4 -216 -109 -220 -115 -3 -4
-15 -10 -27 -14 -13 -4 -23 -12 -23 -17 0 -5 -5 -9 -10 -9 -11 0 -172 -115
-224 -160 -50 -43 -179 -173 -224 -225 -138 -163 -260 -369 -375 -635 -34 -77
-140 -389 -151 -443 -2 -7 -6 -19 -9 -27 -7 -16 -103 -408 -111 -450 -8 -44
-45 -207 -50 -221 -3 -8 -7 -25 -10 -39 -2 -14 -12 -56 -21 -95 -9 -38 -18
-79 -20 -90 -9 -45 -14 -65 -18 -73 -3 -4 -8 -23 -11 -42 -15 -95 -155 -548
-178 -577 -6 -7 -7 -13 -3 -13 4 0 3 -6 -2 -12 -5 -7 -20 -40 -34 -73 -13 -33
-40 -90 -60 -127 -21 -38 -34 -68 -31 -68 4 0 2 -4 -3 -8 -6 -4 -24 -29 -40
-57 -16 -27 -41 -68 -57 -89 -15 -21 -28 -43 -28 -47 0 -8 217 -4 290 6 56 7
104 15 120 20 8 2 33 7 55 11 22 3 63 12 90 20 114 34 222 69 255 83 19 8 40
15 45 17 16 3 230 97 235 103 3 3 23 14 45 24 46 21 237 127 245 136 7 8 41
29 60 38 52 23 333 232 465 347 134 115 357 345 458 471 26 33 54 67 60 75 7
8 26 33 42 55 16 22 32 42 35 45 13 12 148 222 190 295 64 113 204 406 215
450 1 6 5 17 8 25 26 68 84 265 103 355 13 60 36 182 39 209 2 17 7 63 11 101
5 39 9 156 9 262 0 141 3 189 11 180 6 -7 40 -55 75 -107 35 -52 68 -100 74
-106 5 -6 19 -23 30 -39 11 -15 34 -44 51 -64 17 -20 42 -49 55 -65 99 -121
336 -330 494 -436 28 -19 52 -36 55 -39 6 -7 27 -20 80 -51 117 -69 167 -96
275 -148 103 -50 161 -75 283 -123 12 -5 32 -13 45 -18 74 -32 433 -131 527
-146 19 -3 89 -14 155 -25 218 -36 331 -44 605 -44 266 -1 411 9 585 40 44 8
96 17 115 20 19 2 43 7 52 10 10 3 30 7 45 10 16 3 53 12 83 21 30 9 62 18 70
19 77 15 369 128 382 148 4 6 8 7 8 3 0 -18 319 176 320 194 0 5 -113 59 -130
63 -3 1 -30 17 -60 36 -30 19 -65 39 -76 46 -42 23 -323 240 -354 274 -3 3
-50 46 -105 95 -54 50 -113 104 -131 120 -17 17 -94 89 -170 162 -349 330
-415 390 -599 545 -66 55 -131 110 -145 122 -14 12 -70 54 -125 94 -55 40
-108 80 -118 88 -9 7 -20 14 -24 14 -4 0 -16 8 -27 18 -21 19 -153 102 -162
102 -2 0 -23 12 -46 26 -39 25 -197 108 -208 109 -3 1 -23 9 -45 19 -36 16
-58 25 -130 52 -11 4 -24 8 -30 10 -209 64 -321 88 -460 100 -78 6 -330 2
-330 -5 0 -1 -21 -4 -47 -6 -27 -2 -56 -6 -67 -10 -10 -3 -32 -8 -47 -10 -70
-10 -253 -62 -271 -77 -7 -6 -13 -8 -13 -5 0 9 -125 -49 -167 -77 -20 -14 -38
-24 -40 -23 -3 4 33 125 46 152 88 191 146 295 260 464 105 156 124 185 131
191 3 3 32 41 65 85 32 44 72 96 87 115 16 19 32 40 36 45 12 16 86 109 92
115 3 3 23 28 45 55 22 28 49 61 61 75 12 14 57 68 100 120 117 141 118 142
134 159 9 9 43 48 75 86 33 39 62 72 65 75 8 8 135 153 161 184 13 16 29 34
35 40 19 20 237 264 265 297 29 34 140 158 164 183 11 12 56 62 100 111 44 50
85 95 90 101 6 6 36 41 69 78 62 69 76 78 76 47 0 -21 55 -197 70 -223 6 -10
10 -23 10 -28 0 -17 87 -197 127 -264 47 -79 107 -159 160 -216 23 -25 50 -54
60 -65 55 -60 53 -60 129 -3 98 74 213 193 302 313 68 91 188 303 236 418 9
20 23 52 31 70 42 96 130 391 149 502 3 17 8 39 10 50 2 11 7 40 10 65 3 25 8
54 10 65 19 102 28 457 14 550 -4 28 -10 70 -13 95 -7 64 -13 102 -19 125 -19
76 -18 79 23 132 21 29 46 60 55 69 9 8 16 19 16 23 0 4 8 16 18 27 9 10 38
48 64 84 26 36 51 70 55 75 5 6 19 26 33 45 13 19 27 37 30 40 3 3 10 13 15
22 6 9 58 88 116 175 166 247 262 411 363 618 65 133 152 344 148 358 -1 4 3
7 8 7 5 0 9 3 8 8 -1 8 2 17 44 117 50 117 145 360 163 417 10 29 22 58 27 65
5 7 7 17 4 22 -4 5 -2 12 3 15 4 3 12 20 16 38 4 18 9 38 11 43 35 110 74 276
68 287 -3 4 -1 8 5 8 5 0 8 10 6 21 -2 12 0 29 4 38 5 9 12 41 15 72 4 31 9
67 11 80 3 12 7 45 10 73 3 28 8 60 11 71 2 11 6 40 9 65 2 25 7 56 9 70 3 14
8 43 11 65 3 22 9 63 13 92 5 28 8 66 8 82 -1 17 3 31 7 31 4 0 7 6 5 13 -1 6
2 50 6 97 5 47 10 105 12 130 2 25 7 79 10 120 8 94 9 857 1 965 -9 122 -16
206 -22 245 -3 19 -7 60 -9 91 -6 67 -16 149 -21 169 -2 8 -7 41 -10 73 -4 32
-8 68 -11 80 -5 25 -7 38 -28 157 -9 47 -18 96 -21 110 -2 14 -10 50 -16 80
-5 30 -14 69 -19 85 -9 29 -15 56 -27 120 -3 17 -9 38 -14 47 -5 10 -11 30
-13 45 -9 62 -120 401 -162 498 -10 22 -18 42 -19 45 -4 18 -57 131 -103 220
-123 238 -258 398 -393 463 -65 31 -132 57 -164 63 -5 1 -37 9 -70 17 -73 19
-114 29 -140 34 -11 2 -31 5 -45 7 -14 3 -34 7 -46 10 -11 2 -45 7 -75 10 -30
3 -65 8 -78 11 -13 2 -56 7 -95 11 -39 3 -87 8 -106 11 -40 5 -727 13 -732 8z"/>
</g>
</svg>
